PathFileType	4	(X/Y/Z)	9_coords_data.trc
DataRate	CameraRate	NumFrames	NumMarkers	Units	OrigDataRate	OrigDataStartFrame	OrigNumFrames
30.0	30.0	9	21	m	30.0	38	47
Frame#	Time	THUMB_TIP	THUMB_IP	THUMB_MCP	THUMB_CMC	INDEX_TIP	INDEX_DIP	INDEX_PIP	INDEX_MCP	MIDDLE_TIP	MIDDLE_DIP	MIDDLE_PIP	MIDDLE_MCP	RING_TIP	RING_DIP	RING_PIP	RING_MCP	PINKY_TIP	PINKY_DIP	PINKY_PIP	PINKY_MCP	WRIST
X1	Y1	Z1	X2	Y2	Z2	X3	Y3	Z3	X4	Y4	Z4	X5	Y5	Z5	X6	Y6	Z6	X7	Y7	Z7	X8	Y8	Z8	X9	Y9	Z9	X10	Y10	Z10	X11	Y11	Z11	X12	Y12	Z12	X13	Y13	Z13	X14	Y14	Z14	X15	Y15	Z15	X16	Y16	Z16	X17	Y17	Z17	X18	Y18	Z18	X19	Y19	Z19	X20	Y20	Z20	X21	Y21	Z21
37	1.2333333333333334	0.011564999580383302	-0.011726499557495117	1.0268599853515625	-0.005979740142822266	-0.009458410263061523	1.0480999755859375	-0.02589069938659668	-0.011626399993896485	1.0713499755859375	-0.047308101654052734	0.002658169984817505	1.0921099853515626	0.011564499855041504	0.03348860168457031	0.986948974609375	-0.006643280029296875	0.02263170051574707	0.9920809936523437	-0.025917299270629884	0.011638999938964844	0.9994210205078125	-0.045457801818847655	-0.002138550043106079	1.0320899658203124	0.013128299713134766	0.06269440078735351	0.9874849853515625	-0.0067952899932861325	0.05168479919433594	0.99322998046875	-0.03291550064086914	0.03855899810791016	1.0008599853515625	-0.05786669921875	0.018878700256347657	1.030260009765625	0.005729420185089111	0.07775859832763672	1.009760009765625	-0.01604050064086914	0.07018070220947266	1.0122000122070312	-0.042371799468994144	0.05894879913330078	1.0160800170898439	-0.06677429962158203	0.03862220001220703	1.0396199951171874	-0.01930590057373047	0.07941439819335938	1.040739990234375	-0.036660400390625	0.07887599945068359	1.0389599609375	-0.05563980102539062	0.07310710144042969	1.041050048828125	-0.07206520080566406	0.05553910064697266	1.058260009765625	-0.08299839782714843	0.0054353299140930175	1.1123199462890625
38	1.2666666666666666	0.011741999626159669	-0.01158430004119873	1.0271300048828125	-0.00588297986984253	-0.00948585033416748	1.0483299560546875	-0.02602400016784668	-0.011737799644470215	1.0716800537109374	-0.04727080154418945	0.0024786899089813234	1.092010009765625	0.011375900268554687	0.03323540115356445	0.987177978515625	-0.006884739875793457	0.02235460090637207	0.9920289916992188	-0.026114700317382812	0.01137380027770996	0.9994359741210938	-0.04552880096435547	-0.0022504899501800527	1.0320999755859375	0.013036999702453613	0.062354999542236327	0.9875919799804688	-0.006917660236358643	0.05136840057373047	0.9932849731445312	-0.03306570053100586	0.0382765998840332	1.000760009765625	-0.05788169860839844	0.01869499969482422	1.0303499755859375	0.005688210010528564	0.07741220092773438	1.0099000244140626	-0.01610650062561035	0.069877197265625	1.01222998046875	-0.04249489974975586	0.05871419906616211	1.0160800170898439	-0.06677369689941406	0.03848369979858399	1.0396099853515626	-0.019383399963378907	0.07927359771728516	1.0406300048828125	-0.03673759841918945	0.0787251968383789	1.039	-0.05584870147705078	0.0729177017211914	1.0410400390625	-0.07197570037841797	0.05560919952392578	1.0576199951171874	-0.08302899932861328	0.005405379772186279	1.112510009765625
39	1.3	0.011845399856567383	-0.01169040012359619	1.02718994140625	-0.0058051800727844235	-0.00960929012298584	1.0484300537109374	-0.025969499588012694	-0.011873700141906739	1.071800048828125	-0.04664730072021484	0.0032563900947570803	1.09168994140625	0.010948900222778321	0.03283150100708008	0.9867890014648437	-0.007293710231781006	0.021950000762939452	0.9917780151367187	-0.026482099533081054	0.010999099731445312	0.999260986328125	-0.045775901794433596	-0.002538929939270019	1.0325400390625	0.012741900444030762	0.062051700592041015	0.9872219848632813	-0.007220029830932617	0.051045799255371095	0.992906005859375	-0.03335409927368164	0.03796879959106445	1.0006300048828125	-0.05794139862060547	0.018442100524902343	1.0303800048828125	0.005562489986419678	0.07719329833984374	1.0096699829101563	-0.016217699050903322	0.06967420196533203	1.0119099731445313	-0.042592300415039065	0.058438999176025394	1.0159600219726563	-0.06683409881591797	0.03831650161743164	1.039719970703125	-0.019288299560546875	0.07910649871826173	1.040449951171875	-0.03678049850463867	0.07847740173339844	1.0388599853515625	-0.0557661018371582	0.0727040023803711	1.040969970703125	-0.07195159912109375	0.05520830154418945	1.0580699462890626	-0.0833363037109375	0.0053217501640319825	1.1131700439453125
40	1.3333333333333333	0.011724200248718262	-0.011855600357055664	1.0270799560546875	-0.005934030055999756	-0.009713640213012695	1.04843994140625	-0.02601339912414551	-0.01200450038909912	1.0718299560546876	-0.047509700775146484	0.001980829954147338	1.09252001953125	0.010897500038146973	0.03250189971923828	0.9869520263671875	-0.007402390003204346	0.021683900833129884	0.99181201171875	-0.026638599395751954	0.010782999992370606	0.99922900390625	-0.04581869888305664	-0.00275760006904602	1.0323399658203125	0.012705800056457519	0.061799800872802735	0.9872210083007813	-0.007288909912109375	0.05083980178833008	0.9928980102539062	-0.03347370147705078	0.03776670074462891	1.0005700073242187	-0.05809960174560547	0.018261999130249024	1.0302900390625	0.005605410099029541	0.07692469787597657	1.009469970703125	-0.0161387996673584	0.06938929748535157	1.0118400268554688	-0.04261100006103516	0.058203800201416016	1.0158900146484375	-0.06690579986572266	0.038131698608398434	1.03972998046875	-0.01929879951477051	0.0788333969116211	1.0404200439453124	-0.036638198852539064	0.07828079986572266	1.0388199462890626	-0.05567649841308594	0.07252490234375	1.040969970703125	-0.0720885009765625	0.055257801055908204	1.0574599609375	-0.08304019927978516	0.005279069900512696	1.1124100341796874
41	1.3666666666666667	0.011711000442504883	-0.012009099960327148	1.0271400146484375	-0.005969699859619141	-0.009914299964904786	1.0484100341796876	-0.025985599517822266	-0.012054599761962891	1.0719300537109375	-0.04710689926147461	0.002263700008392334	1.092	0.011333800315856934	0.03239770126342773	0.987469970703125	-0.006951429843902588	0.021583900451660157	0.9921890258789062	-0.0263218994140625	0.010679800033569336	0.9994149780273438	-0.04580910110473633	-0.0028329598903656	1.0323800048828125	0.012805000305175781	0.06169910049438477	0.9874089965820313	-0.00724459981918335	0.05075490188598633	0.9930650024414063	-0.03342539978027344	0.03767990112304687	1.0006500244140626	-0.0581338996887207	0.018146499633789063	1.030510009765625	0.005663539886474609	0.07676599884033203	1.0097999877929686	-0.016110300064086914	0.06929830169677734	1.0121599731445312	-0.04256209945678711	0.05812400054931641	1.0159500122070313	-0.0668916015625	0.03801210021972656	1.03977001953125	-0.019319599151611327	0.07875509643554687	1.0406300048828125	-0.03661640167236328	0.07818569946289063	1.038800048828125	-0.055686500549316405	0.07250540161132812	1.040969970703125	-0.07221959686279297	0.05514450073242187	1.0581600341796875	-0.08323750305175781	0.005120409965515137	1.1126300048828126
42	1.4	0.011755800247192383	-0.011809800148010254	1.027199951171875	-0.005960390090942382	-0.00973760986328125	1.048449951171875	-0.026017499923706056	-0.011949299812316894	1.0721099853515625	-0.047289901733398435	0.002136810064315796	1.0921500244140625	0.011887399673461915	0.0317268009185791	0.987698974609375	-0.006469379901885986	0.021033899307250976	0.9924190063476562	-0.025967199325561522	0.010121999740600586	0.9995609741210938	-0.04565729904174805	-0.002895659923553467	1.032530029296875	0.012708999633789063	0.061625999450683595	0.9873729858398438	-0.007337409973144532	0.05064080047607422	0.9930059814453125	-0.03347909927368164	0.03760129928588867	1.0007100219726563	-0.057994598388671874	0.018159900665283203	1.0305999755859374	0.005711050033569336	0.07677179718017578	1.0097899780273438	-0.016125999450683593	0.06927059936523437	1.0121199951171875	-0.04253929901123047	0.058158599853515625	1.016030029296875	-0.06686309814453124	0.038025901794433596	1.0398399658203126	-0.019104400634765626	0.07871009826660157	1.0406099853515625	-0.03638949966430664	0.07814710235595704	1.0389599609375	-0.055501800537109375	0.07244999694824218	1.0411199951171874	-0.0721320037841797	0.0550718994140625	1.0583800048828125	-0.08316940307617188	0.00524252986907959	1.1134000244140625
43	1.4333333333333333	0.011740400314331054	-0.011749600410461426	1.0272900390625	-0.005931159973144531	-0.009661290168762207	1.0485699462890625	-0.026077800750732422	-0.011888299942016602	1.071969970703125	-0.04683250045776367	0.003143899917602539	1.0922099609375	0.012589699745178222	0.03118549919128418	0.98839501953125	-0.00580148983001709	0.020553699493408205	0.9929099731445312	-0.025388099670410155	0.009687729835510254	0.9998740234375	-0.045503799438476565	-0.0029539198875427244	1.03281005859375	0.012904800415039063	0.0615547981262207	0.9876220092773438	-0.007185140132904053	0.05061700057983398	0.9932080078125	-0.03338259887695313	0.037560100555419924	1.0008800048828126	-0.05790459823608399	0.018179399490356445	1.0307900390625	0.005795169830322266	0.07677279663085937	1.0101199951171875	-0.016021099090576172	0.06926640319824219	1.0123699951171874	-0.04247800064086914	0.058143600463867184	1.016239990234375	-0.06679290008544922	0.037998199462890625	1.03997998046875	-0.019055200576782227	0.0787657012939453	1.0405799560546876	-0.03631760025024414	0.078106201171875	1.0390799560546875	-0.05546020126342773	0.07239579772949219	1.041199951171875	-0.0718384017944336	0.055047599792480466	1.05797998046875	-0.08281999969482422	0.005301479816436768	1.11325
44	1.4666666666666666	0.011744799613952637	-0.011826899528503418	1.0273599853515625	-0.0059346799850463865	-0.00969342041015625	1.0486300048828125	-0.02606410026550293	-0.011945599555969239	1.0721800537109376	-0.046513999938964844	0.003331259965896606	1.0918499755859374	0.013401399612426758	0.03085350036621094	0.9892760009765625	-0.005104690074920654	0.020295099258422853	0.9935339965820312	-0.024757600784301757	0.00953633975982666	1.000239990234375	-0.0454026985168457	-0.002902169942855835	1.0328299560546874	0.012951000213623047	0.061437198638916016	0.9877509765625	-0.0071144700050354	0.05048160171508789	0.9933170166015625	-0.03331570053100586	0.037442298889160154	1.001	-0.05770560073852539	0.01824690055847168	1.03081005859375	0.006007730007171631	0.07672139739990234	1.0101799926757813	-0.01586870002746582	0.0692489013671875	1.0125700073242188	-0.042326400756835934	0.058097999572753904	1.0163400268554688	-0.06663230133056641	0.0380281982421875	1.0401199951171876	-0.018746999740600585	0.07857119750976563	1.0409300537109376	-0.035942798614501954	0.077970703125	1.0393599853515625	-0.05510490036010742	0.07231950378417969	1.0413800048828126	-0.07177880096435547	0.05501750183105469	1.0578599853515624	-0.08288780212402344	0.005210499763488768	1.1131500244140624
45	1.5	0.011970800399780273	-0.01179419994354248	1.0275400390625	-0.005793570041656494	-0.009616439819335937	1.0489200439453126	-0.026028900146484374	-0.011958600044250488	1.072260009765625	-0.04638660049438476	0.003131190061569214	1.091719970703125	0.013690299987792968	0.03074850082397461	0.9895280151367187	-0.004817900180816651	0.02017770004272461	0.9937340087890625	-0.02453809928894043	0.009378689765930176	1.0003499755859375	-0.04540539932250977	-0.00300846004486084	1.03297998046875	0.013054200172424316	0.06127280044555664	0.9878699951171875	-0.007049349784851075	0.05031639862060547	0.9934420166015625	-0.033227401733398436	0.03732730102539063	1.0010599975585937	-0.05770429992675781	0.0181294002532959	1.0309300537109376	0.006101640224456787	0.07657070159912109	1.0104500122070312	-0.015764100074768066	0.06907959747314453	1.01272998046875	-0.04225550079345703	0.05802880096435547	1.01652001953125	-0.06658650207519531	0.03800460052490234	1.0400899658203124	-0.018629800796508788	0.0783949966430664	1.041199951171875	-0.03584769821166992	0.0779197006225586	1.0393900146484376	-0.05493579864501953	0.07224859619140625	1.0414300537109376	-0.07184819793701172	0.05508240127563477	1.0575899658203125	-0.08279180145263672	0.005285419940948486	1.11368994140625
